<?xml version="1.0" encoding="utf-8"?>
<!-- Generator: Adobe Illustrator 19.0.0, SVG Export Plug-In . SVG Version: 6.00 Build 0)  -->
<svg version="1.1" id="Layer_1" xmlns="http://www.w3.org/2000/svg" xmlns:xlink="http://www.w3.org/1999/xlink" x="0px" y="0px"
	 viewBox="0 0 294.1 232.8" style="enable-background:new 0 0 294.1 232.8;" xml:space="preserve">
<style type="text/css">
	.st0{opacity:0.08;}
	.st1{fill:#362A29;}
	.st2{fill:none;stroke:#362A29;stroke-width:2.4227;stroke-miterlimit:10;}
</style>
<g class="st0">
	<path class="st1" d="M67.7,165.1c-0.2,0.4-0.3,0.7-0.4,0.7c-0.1,0-2.1-0.6-4.6-1.3c-4.2-1.2-5.4-1.4-5.1-0.7
		c0.1,0.2,2.2,0.9,4.7,1.6c4.5,1.3,4.6,1.3,5.3,3c0.4,0.8,0.6,1.5,0.5,1.7c0.8-0.4,1.5-0.9,2.1-1.5l-0.2-0.6l0.8,0.1
		c0.3-0.3,0.5-0.6,0.8-0.9c-0.2,0-0.3-0.1-0.5-0.1l-1.8-0.3l1.2-0.6c0.7-0.3,1.7-0.4,2.2-0.2c0.6,0.2,1.1,0.2,1.3-0.2
		c0.1-0.3,2.7-0.8,5.6-1c0.4,0,0.7-0.1,1.1-0.1c3.2-2.3,6.7-4.3,10.1-6.2c0.1-0.1,0.2-0.1,0.3-0.1c-2.2-0.4-0.6-0.7,3.3-0.6
		c0.1,0,0.1,0,0.2,0c2.8-0.7,5.5-1.7,8.3-2.6l-1.2,0.1c-2.4,0.2-4.6-0.1-3.5-0.3c0.5-0.1,0.8-0.3,0.7-0.5c-0.2-0.4-18.2-3.3-18.9-3
		c-0.8,0.3,0.5,0.8,4,1.4c3.2,0.5,8.1,2.7,6,2.6c-0.6,0-1.6,0.4-2.2,0.9c-0.9,0.8-1.6,0.9-4.6,0.4c-3.2-0.5-3.5-0.5-3.8,0.4
		c-0.2,0.9-0.6,0.9-4.2,0.1c-3.8-0.8-5.6-1-5.3-0.4c0.1,0.2,3.1,0.9,6.8,1.6c7.9,1.6,10,2.3,8.9,2.9c-0.4,0.2-1.2,0.3-1.7,0.1
		c-1.9-0.7-16.6-3.1-16.7-2.7c-0.2,0.6,0.9,0.9,7.9,2c3.6,0.6,6.5,1.1,6.6,1.2c0,0.1-1.2,0.3-2.9,0.4c-2.5,0.2-3.8,0-9.4-1.8
		c-3.5-1.1-6.6-2.1-6.8-2.2c-0.2-0.1-0.3,0.1-0.3,0.5c0.1,0.4,1.2,0.9,3.1,1.5c3,0.9,3,0.9,1,0.8c-1.1,0-2.4-0.2-2.8-0.3
		c-0.4-0.1-1.2-0.1-1.6,0.1c-0.5,0.2-1.2,0.3-1.7,0.2c-0.5-0.1-1.1,0.1-1.3,0.3c-0.3,0.3-0.1,0.6,0.7,0.7c0.6,0.1,2.7,0.7,4.7,1.2
		C67.5,164.3,67.9,164.5,67.7,165.1z M93.6,154.2c1.6,0.2,3.1,0.5,3.3,0.6c1.3,0.6-3,0.2-4.5-0.3C90.9,153.8,90.9,153.8,93.6,154.2z
		 M84.6,157.9c1.4,0.3,2.5,0.8,2.5,1.1c0.1,0.6-2.2,0.3-4.7-0.7C80,157.4,81.3,157.1,84.6,157.9z M62.9,161.8
		c0.1-0.1,2.1,0.1,4.4,0.4c2.3,0.3,4.6,0.6,5.1,0.6c0.5,0.1,0,0.3-1.2,0.5c-1.5,0.3-3.2,0.1-5.4-0.5
		C64.1,162.3,62.8,161.9,62.9,161.8z"/>
	<path class="st1" d="M79.6,121.3c0.7,0.7,1.3,1.4,2,2.1c0.1-0.1,0.4-0.2,0.7-0.4c1.1-0.6,1.2-0.6,0.5-1.8
		c-2.3-3.8-8.7-6.2-12.3-8.4c1.8,2.6,4.9,3.5,7.1,5.6C78.5,119.2,79.1,120.2,79.6,121.3z"/>
	<path class="st1" d="M101.8,0c-1.4,0.5-1.3,1.3,0.2,3.9c0.8,1.4,2.4,4.4,3.6,6.7c5.6,10.9,13.3,22.1,29.7,43.8
		c1.4,1.8,2.1,2.9,2.5,3.6c2.7,3,3.7,7.3,6.5,10.4c0.3,0.4,0.6,0.8,0.7,1.2c1.2,1.4,2.5,2.8,3.9,4.4c7.5,8.4,10.2,11.6,10.2,12.5
		c0.1,1.9,14.8,19.4,20.7,24.4c2.5,2.1,3.9,3.4,4.6,4.2c3,2.2,4.4,5.7,6.5,8.6c0.3,0.5,0.4,0.9,0.3,1.3c3.8,3.8,4.1,4.3,2.9,4.1
		c-1.2-0.3-1.5-0.1-2,1.1c-0.3,0.8-0.6,1.4-0.6,1.4c-0.3-0.1-8.7-7.5-16.4-14.3c-6.6-5.9-10.2-8.8-11-9c-1.9-0.3-4-2.6-5.4-3.7
		c-2.5-2.1-5-3.3-7.9-4.9c0.3,1.5,1.9,1.9,2.9,2.7c1.2,0.9,2.3,2.1,3.5,3.1c1.6,1.4,3.3,3,5.1,4.1c1.7,1,3.7,1.5,5.2,2.7
		c1.4,1.1,2.8,2.5,4.1,3.7c3.7,3.3,9.3,8.2,12.5,11c3.2,2.8,6.3,5.3,7,5.6c1.2,0.5,1.3,0.5,1.8-0.9c0.5-1.5,0.5-1.5,2.6-0.7
		c1.4,0.5,2.8,1.6,4.4,3.3c1.3,1.4,2.7,2.7,3.2,3c2.2,1.3,4,2.8,7.6,6.4c4.8,4.7,5.5,5.1,5.9,3c0.1-0.4,1.3,0.7,4.5,4.2
		c4.1,4.6,7.3,8.7,6.9,9c-0.5,0.4-0.3,0.7,6.7,9.7c3.5,4.5,6.5,8.6,6.7,9.1c0.5,1.1-1-0.6-8.2-9.9c-2.9-3.8-5.5-6.8-5.6-6.8
		c-0.2,0.1-0.1,0.6,0.1,1.1c0.2,0.5-0.5-0.1-1.5-1.4c-1.9-2.5-2.3-3.5-0.6-1.5c0.6,0.7,1.2,1.1,1.4,0.9c0.6-0.4-4.1-5.4-9-9.7
		c-4.7-4.1-4.7-4.1-4.9-3.5c-0.1,0.2,1.3,1.7,3.2,3.3c1.8,1.6,4.4,4.4,5.6,6.3c1.3,1.8,4,5.5,6.1,8.2c4,5.2,4.9,6.7,1.9,3.4
		c-1-1.1-1.9-1.9-2-1.8c-0.6,0.3-4-3.9-6.2-7.6c-1.2-2-3-4.3-4.1-5.1c-1.1-0.9-3.3-3-5-4.8c-3.5-3.6-3.4-3.5-3.6-2.9
		c-0.1,0.2,0.4,1.1,1.2,1.9c1.5,1.5,2,2.2,6.1,8c1.5,2.1,2.6,3.9,2.4,4c-0.6,0.3-9.1-9.4-11.6-13.1c-1.4-2.1-4-6-5.7-8.8
		c-1.8-2.7-3.5-5-3.8-5c-0.3,0-0.1,0.7,0.5,1.6c5.7,8.8,12.1,19.4,11.6,19.2c-1.1-0.4-4.8-3.6-5.4-4.7c-0.9-1.5-1.6-1.9-1.6-0.9
		c0,0.6-0.3,0.5-1.5-0.3c-2.6-1.9-4.4-3.8-7.4-8c-3.6-5.1-5-5.6-1.7-0.6c1.3,2,2.2,3.5,2,3.4c-0.2-0.1-2.4-1.6-4.8-3.3
		c-6-4.3-9.7-8.5-15.2-17.3c-2.6-4.2-3.4-5.2-3.7-4.5c-0.2,0.5,4.1,7.4,7.3,11.7c1.2,1.7,2.1,3.1,2,3.2c-0.2,0.1-2.4-1.7-5-3.9
		c-4.3-3.7-5.3-4.9-12-14.5c-4-5.7-7.6-10.4-7.9-10.5c-0.3,0,1.9,3.5,4.9,7.8c3,4.3,5.4,7.9,5.4,8c0,0.1-3.6-3.3-7.9-7.4
		c-4.3-4.2-7.9-7.6-8.1-7.7c-0.1-0.1-0.7-1.2-1.2-2.6c-0.5-1.4-1.2-2.4-1.4-2.3c-0.2,0.1-0.2,0.7,0.1,1.4c0.3,0.7,0.3,1.2,0.2,1.1
		c-1.1-0.4-13.4-14.3-12.9-14.5c0.1,0,2.1,1.7,4.4,3.9c2.3,2.2,4.5,4,4.9,4c0.8,0,1.1-0.6,0.9-1.5c-0.1-0.6-2.7-2.4-3.3-3
		c-1.1-1-2.3-2.2-3.4-3.2c-1.2-1-2.4-2.1-3.6-3.2c-2.4-2.3-4.7-4.8-6.6-7.4c-0.8-1-2.2-1.3-2.6-0.4c-0.1,0.3,1.4,4.1,3.3,8.3
		c6.9,14.9,19.6,30.2,36.1,43.4c3.2,2.6,8.5,6.8,11.8,9.5c4.4,3.6,14.7,10.7,16.4,11.4c0,0-0.1,0.6-0.3,1.3c-0.3,1,0,1.6,1.4,2.8
		l1.7,1.5l-5.2-2.3c-5.1-2.3-5.4-2.4-11-7.5c-6.5-5.9-9.6-8.2-11.9-9c-1-0.3-3.5-2.3-6.7-5.2c-5.6-5.1-8.3-6.8-10-6.3
		c-1,0.3-1.5,0-4.9-2.4c-2.8-2-4.5-2.9-6.3-3.4c-1.9-0.5-3.3-1.3-6.2-3.6c-2-1.6-5.2-3.9-7-5c-3-1.9-3.5-2.1-5.4-2.1
		c-1.1,0-2.2-0.1-2.3-0.3c-0.1-0.1-3.4-2-7.2-4.1c-1.4-0.8-2.6-1.4-3.6-1.9c-0.9,0.3-2,0.3-3.1-0.4c-1.1-0.6-2.2-1.2-3.3-1.8
		c-0.8-0.2-1.8-0.7-3.4-1.7c-5-2.3-10.2-3.9-15.9-4.2c-1.6-0.1-2.7-0.9-3.2-2c-2.8-1.1-7.1-2.8-13.9-5.6
		c-12.8-5.3-18.9-7.6-19.9-7.6c-1.5,0-2.3,1.2-1.7,2.3c0.8,1.4,10.1,12.4,13.1,15.6c1.8,1.8,5.3,5.3,7.9,7.8c2,1.9,3.1,3,3.7,3.7
		c1,0.6,2,1.3,3,2.1c0.4-1-0.8-2.6-5.3-7C60.1,98.5,48.7,86,49.1,85.9c0.1-0.1,4.6,3,9.9,6.7c5.4,3.8,9.8,7,9.9,7.2
		c0.1,0.2-0.5,0.1-1.2-0.2c-0.8-0.3-1.5-0.3-1.6-0.1c-0.2,0.6,1.6,1.3,3.3,1.3c1,0,2,0.5,4,1.9l2.7,1.9l-2.4-0.7
		c-2.2-0.6-3.5-0.6-3.2,0c0.1,0.1,1.9,0.8,4.2,1.5c2.8,0.8,4.6,1.6,5.7,2.4L82,109l-3.1-0.8c-1.7-0.5-3.2-0.7-3.3-0.4
		c-0.2,0.5,0.5,0.8,5.1,1.9c2.8,0.7,4.3,1.3,5.9,2.5l2.2,1.5l-3.6-1c-2-0.6-3.8-0.9-4-0.7c-0.5,0.3,1.8,1.2,6.6,2.5
		c2.7,0.7,4.2,1.4,6.5,3l2.9,2l-3.4-0.6c-3.5-0.6-5-0.6-4.7,0c0.2,0.4,8,1.7,8.9,1.5c0.5-0.1,6.4,3.4,6.6,3.9c0.1,0.1-2-0.1-4.7-0.6
		c-4.8-0.8-5.7-0.8-5.4-0.2c0.2,0.4,9.3,1.9,10.7,1.7c1.1-0.1,7.1,3.2,7.2,4c0.1,0.4-5.8-0.3-7.3-0.8c-0.4-0.2-0.8-0.1-0.9,0.2
		c-0.2,0.6,0.8,0.9,4.5,1.5c0.6,0.1,1.1,0.2,1.5,0.2c0.5-0.5,1.3-0.7,2.2-0.2c1,0.5,2.2,1,3.5,1.6c-0.3-0.3-0.4-0.5-0.4-0.5
		c0.1-0.1,1.4,0.6,2.9,1.5c1.4,0.9,3.3,2.3,4.1,3.1c1.4,1.4,1.4,1.5,0.2,1.3c-0.5-0.1-1.1-0.4-1.9-1c0.1,0.4,0.1,0.9,0,1.4
		c0,0.1,0,0.1,0,0.1c0.2,0.1,0.5,0.3,0.6,0.6c0.2,0.5,0.1,0.6-0.4,0.4c-0.2-0.1-0.3-0.2-0.5-0.3c-0.2,0.4-0.4,0.7-0.8,0.9
		c0.2,0.3,0.3,0.5,0.3,0.6c-0.1,0.3-0.4,0.3-0.6,0c-0.1-0.1-0.2-0.2-0.4-0.3c-0.5,0.1-1.1,0.1-1.7-0.1c0.7,0.8,0.6,1.1-0.6,0.4
		c-0.3-0.2-0.7-0.5-1-0.7c-0.5,0.1-1,0.2-1.5,0.2c0.7,0.8,0.5,0.8-0.5,0.4c-0.2-0.1-0.5-0.2-0.8-0.4c-2.7-0.1-5.5-1.1-7.7-2
		c-0.1,0-0.2-0.1-0.2-0.1c-2.2-0.7-4.9-1.5-6.6-2c-3.2-1-3.5-1.1-3-1.8c-1.1-1.2-1.9-2.7-3-3.9c-2.3-0.9-7.4-3.5-9.7-4.9
		c0.3,0.3,0.4,0.7,0.2,1c3,2.2,6.7,3.3,9.5,5.7c0.2,0.2,0.3,0.3,0.5,0.5l0.7,0.3l-0.2,0.4c0.1,0.3,0.2,0.6,0.3,0.9
		c1,0.6,2,1,3.1,1.3c1.6,0.4,2.5,1.4,2.7,2.6c0,0,0.1,0,0.1,0c6.9,2,7,2.1,3.9,2.2c-2.9,0.2-5,1.3-5.2,2.8c-0.1,1-0.7,1.4-4.6,2
		c-2.3,1.8-5,2.7-8,2.9c-2.2,0.2-5-0.2-7,0.8c-0.4,0.2-0.9,0.3-1.3,0.4c-3.4,3.9-7.8,4.4-12.4,6.1c-1,0.4-1.9,0.8-2.8,1.2
		c1.8-0.5,3.7-1,5.3-1.3c8.9-1.8,8.5-1.7,8.9-3.6c0.3-1.5,0.6-1.7,3-2.3c1.5-0.4,6.4-1.1,11-1.6c4.6-0.5,8.6-1.2,8.9-1.5
		c0.3-0.3,0.8-1.3,1.1-2.1c0.5-1.3,0.8-1.5,2.6-1.7c4.3-0.4,10.3,0.2,12.3,1.3c1.1,0.6,3.8,1.6,6,2.2c2.2,0.7,4.1,1.4,4.1,1.6
		c0,0.2,0.7,0.7,1.5,1c0.8,0.3-2.8-0.5-7.9-1.7c-5.1-1.3-9.4-2.3-9.5-2.2c-1,0.4,1.3,1.1,10.4,3.5c5.7,1.5,10.3,2.8,10.4,2.9
		c0.1,0.3-4.5-0.5-9.6-1.8c-6.2-1.6-16.8-3.4-17-3c-0.2,0.5,0.4,0.7,2.7,1c1,0.1,1.9,0.5,2,0.8c0.1,0.3,0.9,0.8,1.7,1.2
		c1.3,0.6,0.8,0.7-3.9,0.6c-6.3-0.1-8.7,0.6-3,1c0.8,0.1,0.9,0.3,0.6,1.2c-0.2,0.6-0.4,1.1-0.5,1.2c0,0-3.9-0.8-8.6-1.9
		c-4.8-1-8.8-1.8-9-1.7c-1,0.4,0.4,0.9,5.9,2.1c3.3,0.7,7.3,1.8,8.9,2.6l2.7,1.2c0.7-0.2,1.5-0.5,2.2-0.7c0.3-0.4,0.6-0.8,1.1-1
		c-0.3-0.2-0.6-0.4-0.6-0.6c-0.2-0.8,4.4-1,11.1-0.6c5.5-0.2,10.5-1.7,16-1c0.8,0,1.6-0.1,2.4,0c0.2-0.1,0.4-0.1,0.7-0.1
		c0.1-0.2,0.3-0.3,0.6-0.3c0,0-0.1,0-0.1,0l-2.8-1.2l2.8,0.9c0.6,0.2,1.1,0.3,1.6,0.4c0.4,0.1,0.8,0.1,1.2,0.1
		c0.5-0.1-0.5-0.9-3-1.9l-3.4-1.4l3.8,1.3c2.7,0.9,3.8,1.5,3.9,2c0,0.1,0,0.2,0,0.3c1,0.2,2.1,0.3,3.2,0.5l0,0
		c-0.6-1.3,2.9-0.9,10.1,1.2c0.5,0,1,0,1.5,0c4.6-0.1,9.1-0.5,13.7,0.7c0.3,0.1,0.4,0.2,0.6,0.4c1.3,0.3,3,0.8,5.2,1.4
		c6.4,1.8,17.8,6.5,24,9.8c17.2,9.3,34.3,20.4,40.6,26.3l2.6,2.4l-1.9-0.4c-1.2-0.2-2-0.6-2.1-1.1c-0.1-0.4-4.8-3.4-10.5-6.6
		c-5.6-3.2-12.6-7.3-15.5-9.1c-5.1-3.1-6.2-3.6-5.7-2.6c0.3,0.6,8.3,5.5,20.7,12.6l10.5,6l-4.2-1c-2.3-0.5-6.9-1.4-10.1-2
		c-4.6-0.8-6.2-1.2-7.4-2.1c-0.8-0.6-6.4-3.6-12.4-6.6c-10.7-5.4-18.3-9.8-23.2-13.1c-2.9-2-3.5-2.3-3.7-1.8c-0.2,0.4,6,4.6,11.7,8
		c2.2,1.3,8.9,4.8,14.8,7.8c6,3,11,5.7,11.1,5.9c0.4,0.7-14.4-1.2-17.3-2.3c-1.5-0.6-4.8-2.3-7.5-3.8c-3.1-1.8-9.4-4.7-18.2-8.4
		c-7.4-3.1-16.4-7.2-20.1-9.1c-7.9-4-8.8-4.3-8.4-3.6c0.5,1,13.9,7.4,28,13.5c14,5.9,24.1,11.1,22.7,11.5c-0.1,0-6.6-0.2-14.4-0.5
		c-11.7-0.5-14.3-0.7-15.1-1.5c-0.5-0.5-2.7-1.5-4.8-2.4c-4.6-1.8-9.5-4.4-15.1-8c-2.3-1.5-4.2-2.7-4.3-2.8c-0.1-0.1-0.3,0-0.6,0.2
		c-0.7,0.7,10.2,7.3,17,10.3c3.5,1.5,6.4,3,6.3,3.1c-0.1,0.2-2.6,0.2-5.5,0.1l-5.4-0.3l-25.7-9.8c-11.5-4.4-21.4-8.1-24.6-9.2
		c-0.3,0.1-0.5,0.1-0.8,0.1c1.6,1.2,9,4.1,26.2,10.6l21.8,8.1L141,184c-4.1,0.1-9.4,0.2-11.9,0.3l-4.4,0.2l-11.9-4.4
		c-6.6-2.4-12-4.2-12.1-4c-0.1,0.2,4.5,2.2,10.1,4.4l10.3,4l-4.5,0.3c-4.4,0.3-4.6,0.3-14.6-2.4c-5.6-1.5-13.9-4-18.6-5.4
		c-4.6-1.5-8.7-2.5-9-2.4c-1,0.4,18.3,6.5,30.4,9.6c2,0.5,3.7,1,3.7,1.1c0,0.1-4.4,0.7-9.8,1.3l-9.9,1.1l-6.4-2
		c-7.5-2.3-8.5-2.5-8.8-1.9c-0.1,0.3,0.4,0.6,1.1,0.7c0.7,0.1,3.5,0.9,6.3,1.8l5,1.6l-4.3,0.6c-3.2,0.4-5,0.4-7.1-0.2
		c-7.7-2.1-21.7-5.3-21.8-4.9c-0.2,0.5,1.2,1,10,3.1c8.3,2,11.7,2.8,11.6,3c-0.1,0.2-13.2,2.3-14.7,2.3c-1,0-3.6-0.5-5.9-1.2
		c-2.3-0.7-4.4-1.1-4.7-0.9c-0.4,0.2,0.6,0.7,3.5,1.6l4.1,1.3l-3.3,0.5c-2.9,0.5-3.9,0.3-8.5-1c-8.3-2.3-9.2-2.5-9.4-2.1
		c-0.1,0.3,0.7,0.7,2.2,1.1c1.3,0.4,4.1,1.1,6.1,1.7l3.7,1.1l-7.5,1.5c-4.1,0.8-12.3,2.6-18.1,3.9c-5.8,1.3-11.3,2.5-12.2,2.7
		c-3.2,0.7,4-3.6,10.5-6.2c0.4-0.2,0.8-0.3,1.3-0.5c-0.3-0.8-0.1-1.7,0.9-2.1c2.1-0.9,8.1-1.5,7.6-4.7c0-0.3,0-0.6,0.1-0.9l-0.6-1.3
		l0.5-0.2c0-0.3,0.2-0.7,0.5-0.9c3.8-2.6,8.2-3,12.4-4.6c1.3-0.5,2.5-1,3.8-1.6c-0.8,0-2.8-0.4-6.9-1.3c-3.6-0.8-6.8-1.3-7.1-1.2
		c-0.8,0.4,0.2,0.7,5.6,1.9c2.4,0.5,4.5,1.1,4.6,1.2c0.2,0.4-3.6,0.8-5.2,0.5c-5.4-0.9-8.2-1.2-8.3-0.9c-0.1,0.2,1.2,0.8,2.8,1.3
		c1.6,0.5,2.9,1,2.9,1.1c-0.1,0.2-4.1-0.1-6.9-0.4c-1.4-0.2-2,0-1.9,0.4c0.2,0.4,0.7,0.6,1.5,0.6c0.7,0,1.9,0.1,2.6,0.2
		c1.3,0.2,1.3,0.2,0.6,0.7c-0.5,0.3-2.4,0.4-4.2,0.2c-1.9-0.1-3.5-0.1-3.5,0.2c-0.2,0.5,0.3,0.7,2.8,0.8c2.2,0.1,3,0.5,1.9,1
		c-0.6,0.3-6.1,0.2-6.9-0.1c-0.5-0.2,0.2-0.8,6.3-5.3c8.1-6,9.8-7.1,10.6-6.8c6.6,1.9,7.6,2.2,6.7,2.3c-0.6,0-1.6-0.1-2.3-0.4
		c-0.7-0.2-1.2-0.2-1.2,0c0.1,0.5-1.5,0.5-3.1-0.1c-0.6-0.2-1.1-0.2-1.2,0c-0.2,0.6,1.1,1.1,5.8,2c2.3,0.4,4.2,1.1,4.5,1.4
		c0.2,0.2,0.2,0.3,0.2,0.4c0.2-0.1,0.5-0.2,0.7-0.3c0.5-0.5,1-0.9,1.6-1.4c-2.2-1.5-1-2,8.4-3.4c3.2-1.8,7-2.4,10.1-4.1
		c-0.3,0-1.9-0.4-3.7-1.1c-7.3-2.4-11.6-3.5-11.6-3.1c0,0.5,4.1,2,8.4,3c1.7,0.4,3.5,0.9,4.2,1.2c3.7,1.4-6.2-0.3-13.6-2.4l-2.8-0.8
		l2-1c1.1-0.5,2.4-1.3,2.9-1.8c0.8-0.7,0.9-1.2,0.6-3l0-0.1c-0.5,0.1-1,0.3-1.5,0.4c-0.3,0.1-0.6,0.3-1,0.4l0.1,0.5l-5.4,2.4
		c-5.4,2.4-11.9,6.5-21.5,13.8c-9.1,6.9-18.4,16.3-21.5,21.7c-1,1.7-2.2,3.5-2.6,3.9c-1.2,1.1-1.3,2.5-0.3,3c0.5,0.3,5-0.5,11.5-1.9
		c5.9-1.3,13.7-2.9,17.5-3.6c3.8-0.7,9-1.7,11.6-2.2c6.6-1.4,30.9-5.1,46.9-7.1c16.5-2.1,30.4-3.4,41.2-3.7l8.3-0.3l0.1,0.1
		c1.6-0.7,37.5-2.4,52.3-0.3c7.9,1.1,17.2,2.2,25.7,4.5l2,0.3c3.1,0.4,8,1.3,11.1,2c5.2,1.2,5.9,1.5,13.5,5.3
		c18.4,9.1,32.5,18.1,51.4,32.7c0.1-2.8,0.1-5.5,0.2-8.3c-9.9-7.2-24.7-17.3-29.7-20.1c-5.2-2.9-6.2-3.8-1.7-1.6
		c5,2.6,20.3,12.9,31.4,20.9c0-0.6,0-1.2,0-1.8c-1.6-1.2-3.3-2.4-5.1-3.7c-13.8-9.8-16.8-11.7-25.3-16l-6.3-3.2l-1.8-4.4
		c-2.5-6.1-7.2-20.1-10.7-32.1c-5.1-17.2-17.1-42.9-20.8-44.3c-1-0.4-1.9-1.6-3.7-5.2c-2.3-4.5-4.8-8.9-7.6-13.2
		c-2.1-3.3-4.6-8.1-7.8-10.5c-1.2-0.9-2.8-2.4-4.4-1.9c6.5,7.1,11.7,15.5,16.1,24.1c4.7,9.1,4.8,9.3,6.3,9.5
		c1.3,0.2,1.4,0.3,6.7,9.5c0.4,0.7,0.4,1.2,0,1.5c-0.4,0.3-0.4,0.4,0.2,0.5c0.5,0,1.1,0.8,1.7,2.2l0.9,2.2l-2.1-2.5
		c-1.2-1.4-2.6-3.2-3.3-4.1c-2.2-2.9-4.2-4.9-4.5-4.6c-0.2,0.2,1.1,2.8,2.8,5.8c1.8,3,3.2,5.6,3.1,5.7c0,0.1-0.8-0.8-1.7-1.9
		c-2-2.5-4.8-5.6-5.3-5.8c-0.9-0.3-0.1,1.7,3.6,9c2.6,5.2,4.4,8.3,5,8.5c0.5,0.2,0.8,0.5,0.7,0.9c-0.1,0.3,0.4,1.7,1.1,3.1
		c1.1,2.1,0.9,1.9-1.1-1.1c-1.3-2-3.2-4.9-4.2-6.4c-1-1.5-3.4-6-5.3-10c-3.6-7.4-11.5-22.3-11.9-22.4c-0.9-0.3-0.2,1.3,2.2,5.8
		c1.6,3,2.6,5.3,2.3,5.6c-0.3,0.3-0.2,0.5,0.3,0.5c0.5,0,1.7,1.9,3.5,5.4c4.1,8.2,4.1,8.3-0.8,2.7c-3.6-4.1-5-6.1-6.4-9.2
		c-1-2.2-2-3.9-2.2-3.8c-0.2,0.1-0.1,1,0.3,2l0.7,1.8l-1.4-1.7c-0.8-0.9-1.9-2.5-2.6-3.4c-0.7-0.9-3.2-5.8-5.5-10.8
		c-4.3-9.2-5.5-11.4-6.1-11.1c-0.2,0.1,0.4,1.6,1.3,3.5c3.2,6.5,5.8,12.5,4.9,11.4c-2.1-2.6-7.7-9.6-10.7-13.3
		c-1.8-2.3-4-5.4-4.8-6.9c-0.8-1.5-3.2-5.8-5.2-9.6c-2-3.7-4.8-9-6.2-11.7c-2.3-4.5-3.3-5.9-3.5-5c-0.1,0.4,3.2,6.9,8,15.5
		c4,7.2,4.6,8.5,2.9,6.4c-3.9-4.9-7.4-9-12.7-14.7c-3.7-4-6.3-7.4-7-8.9c-1.2-2.7-8.8-15.8-10.8-18.7c-0.7-1.1-1.5-1.9-1.8-1.8
		c-0.2,0.1-0.1,0.6,0.3,1.2c0.7,1,8.9,14.9,10.1,17.1c0.3,0.6-3.3-3.2-8.1-8.6c-4.8-5.4-8.6-9.9-8.4-10.2c0.2-0.4-8.9-17.3-9.7-18
		c-1.3-1.1-0.1,1.5,4,8.9c2.6,4.6,4.6,8.4,4.4,8.5c-0.1,0.1-3.7-3.7-7.9-8.3c-4.2-4.6-10.4-11.1-13.7-14.4
		c-9.4-9.3-11.4-11.4-11.2-11.6c0.2-0.1,4.2,2.7,8.9,6.1c9.1,6.6,9.9,7,11,5c0.1-0.2,0.3-0.4,0.5-0.5c-0.4-0.2-0.7-0.3-1.1-0.5
		c-5.3-2.2-8.8-6.5-13.9-8.9c-0.6-0.3-0.9-0.7-1-1.2C106.1,1.5,102.7-0.3,101.8,0z M218.9,158.4c-1.1-1.2-1.4-1.8-0.7-1.5
		c0.2,0.1,0.7,0.7,1.1,1.5l0.8,1.3L218.9,158.4z M112.6,148.6c-2.6-1-1.4-1,3.1-0.1c2.3,0.5,4.2,1,4.2,1.1
		C120.2,150,114.3,149.2,112.6,148.6z M46.4,167.9c1.3-0.6,1.9-0.5,6.9,1.4c4.5,1.7,5.3,2.1,4.5,2.3c-1.6,0.4-4.2,0-8.6-1.6
		l-4.1-1.4L46.4,167.9z M42.5,169.7c0.6-0.3,2.3,0,5.4,1c3.7,1.2,4.4,1.5,3.8,1.8c-0.8,0.4-4.6-0.4-8.2-1.7
		C41.8,170.1,41.7,170,42.5,169.7z M39.4,171.6c1.1-0.8,1.5-0.8,3.5,0c1.3,0.5,3.1,1,3.9,1.2l1.6,0.3l-1.5,0.7
		c-1.3,0.6-2.1,0.5-5.1-0.3l-3.6-1L39.4,171.6z M18,187.4c1.2-1.1,2.1-1.6,2.5-1.3c0.3,0.3,1.1,0.4,1.9,0.4c0.9,0,1.3,0.1,1.2,0.5
		c-0.1,0.3,0.4,0.6,1.4,0.8c1.2,0.2,0.9,0.4-1.6,0.6c-1.7,0.2-3.3,0.5-3.5,0.7c-0.5,0.6-0.3,0.6,4.1,0.3c3.5-0.2,4.9,0.2,3.7,1.1
		c-0.6,0.5-5,0.6-7.5,0.2c-1.2-0.2-2.6-0.4-3.2-0.5C15.4,190.1,15.6,189.6,18,187.4z M5.5,201.7l1-1.8c0.6-1,2.4-3.3,4.1-5
		c3.5-3.6,3.9-3.9,5.7-3.6c1.1,0.2,1.2,0.3,0.8,0.8c-0.7,0.8-0.3,0.8,2.8,0.5c4-0.4,2.3,0.3-2,0.9c-2,0.3-3.7,0.7-3.6,0.9
		c0,0.2,0.9,0.4,1.8,0.2c1.6-0.2,1.5-0.1-1.4,1.4c-1.7,0.9-4.5,2.5-6.2,3.7L5.5,201.7z M115.9,127.1c-0.6-0.6-1.4-1.1-1.8-1.1
		c-1.5,0-6.3-3.3-7.9-5.4c-1.8-2.4-3.1-3.1-2-1.2c1.9,3.3-4.3-1.6-9.3-7.4c-2.4-2.8-4.4-5-4.6-5.1c-1.2-0.5-0.4,0.9,2.6,4.3
		c1.8,2.1,3.2,3.9,3.1,3.9c-0.1,0-2-1.1-4.2-2.5c-3.4-2.2-5-3.7-11.1-10.5c-4.3-4.8-7.1-7.6-7.3-7.3c-0.1,0.3,1.9,2.9,4.5,5.7
		c2.6,2.8,4.7,5.3,4.8,5.4c0,0.2-3-1.8-6.9-4.5c-3.8-2.6-11.1-7.7-16.3-11.2c-5.1-3.5-9.2-6.4-9.1-6.5c0.1-0.1,6,2.4,13,5.4
		c7,3,14.4,6.3,16.3,7.2c3.7,1.7,4.7,1.8,5.4,0.5c0.4-0.7,0.9-0.6,3.8,0.3c1.9,0.6,5,2.2,7.1,3.5c3.2,2,4,2.3,5.1,2.2
		c1.4-0.2,2.3,0.3,13.3,6.3c3.3,1.8,3.9,2,5.3,1.8c1.3-0.2,2.1,0,3.8,0.9c3.5,1.9,10.8,7.9,13.3,10.8c1.3,1.5,2.6,2.8,3.1,2.8
		c0.6,0.1,0.3-0.5-1-1.9c-2.1-2.2-2-2.7,0.5-1.8c2.6,1,7.1,4.6,11.4,9.2c2.2,2.4,6.1,6.2,8.5,8.5c5.2,4.9,5.7,5.5,3.4,4.6
		c-1.1-0.4-4-3.1-9.5-8.7c-4.3-4.4-8-8-8.3-7.8c-0.4,0.3,2.6,3.5,10.6,11.6c2.9,2.9,3.6,3.8,2.7,3.6c-1-0.3-5.5-4.4-12.1-11.2
		c-1.4-1.4-2.8-2.6-3.1-2.6c-0.6,0,5.7,6.8,10,10.8c1.2,1.1,1.9,2,1.6,2c-0.3,0-2.1-1.5-4-3.4c-10.5-10.4-12.7-12.3-11.8-10.3
		c0.1,0.3,2.6,2.9,5.5,5.7c2.9,2.8,5.7,5.6,6.2,6.2l0.9,1l-1.8-0.4c-1.5-0.3-2.6-1.1-6.1-4.4c-2.4-2.2-6.4-6.3-8.9-9.1
		c-2.5-2.8-4.6-4.8-4.6-4.4c0,0.8,4.5,6.1,9.4,10.9c2.2,2.1,4.5,4.4,5.2,5.1l1.3,1.3l-2.2-1c-1.6-0.7-3.4-2.3-6.4-5.6
		c-2.3-2.5-4.4-4.5-4.6-4.4c-0.2,0-1.9-1.5-3.8-3.5c-3.5-3.7-4.1-4.2-4.3-3.5c-0.1,0.2,1.8,2.3,4.2,4.7c2.4,2.4,5.9,6,7.9,8.1
		c3.3,3.5,3.5,3.7,2.3,3.7c-1.1,0-2.4-1.3-8.9-8.2c-4.1-4.5-7.7-8.1-7.9-8c-0.3,0.1-0.4,0.3-0.3,0.5c0.1,0.2,3.2,3.6,7,7.8
		c5.3,5.7,6.6,7.5,5.8,7.4c-1.2-0.1-4-2.8-10.1-9.5c-4.2-4.6-4.2-4.6-4.5-3.9c-0.1,0.2,2,2.8,4.6,5.6c4.5,4.9,4.6,5.1,2.6,4
		c-2.4-1.3-6.7-5.5-13.1-12.7c-2.4-2.7-4.6-5.1-4.8-5.2c-1.4-0.5,1.3,3,8.4,10.9c2.8,3.1,2.8,3.2,1,2.1
		C117.8,128.7,116.5,127.7,115.9,127.1z M177.1,153.1c-1.4-0.6-3.1-1-3.8-1c-0.8,0-1.5-0.3-1.9-0.7c-0.8-0.9-1.6-1.2-1.5-0.5
		c0.1,0.8-1.3,0.5-5-1c-3.7-1.4-5.2-1.3-2.2,0.2l1.9,1l-1.6,0.7c-1.5,0.7-2,0.6-8.6-1.4c-3.8-1.2-8.2-2.6-9.8-3.2
		c-1.6-0.6-2.8-0.9-2.9-0.6c-0.1,0.2,0.4,0.7,1,0.9c0.9,0.4,1,0.5,0.4,0.7c-0.5,0.1-2.4-0.4-4.4-1.2c-2-0.7-4-1.3-4.6-1.3
		c-0.6,0-0.8,0.1-0.6,0.2c0.2,0.1,0,0.3-0.4,0.4c-0.5,0.1-1.8-0.2-2.9-0.6c-3-1.2-3-0.1,0.1,1.1c1.5,0.6,0.4,0.4-2.7-0.6
		c-2.9-0.9-6.6-2-8.4-2.5c-3.1-0.9-3.8-1.8-1-1.3c1.6,0.3,4.5-1,5-2.1c0.2-0.5,0.9-0.9,2-0.9c2-0.1,6.9,0.5,9.2,1
		c0.9,0.2,3.4,0.7,5.5,1.1c6.9,1.3,9,1.7,15.9,3.6c8.2,2.2,22.3,6.8,23.4,7.6C180.8,154,179.5,154.2,177.1,153.1z M182.8,155
		c-1.4-0.3-2.2-0.7-2.1-1c0.1-0.2,1.2,0,2.5,0.4C185.9,155.6,185.7,155.8,182.8,155z M168.7,144.9c-2.5-2.3-9.8-9.7-12.4-12.6
		c-1.1-1.3-2.4-2.3-2.9-2.4c-0.8-0.1,6.2,7.6,11.5,12.7c1.4,1.3,2.4,2.5,2.3,2.5c-0.3,0.1-8.4-7.5-13.6-12.8c-3.4-3.5-4-4.3-3.4-4.7
		c0.4-0.2,1.2-0.2,1.8,0c1.4,0.5,7.9,6.4,8.6,7.9c0.3,0.6,2.6,3.1,5,5.6C170.1,145.6,172,147.9,168.7,144.9z M176.9,148.4
		c-0.6-0.1-2.4-1.7-4-3.5c-1.7-1.8-3.1-3.3-3.3-3.4c-0.7-0.3-0.6,0.9,0.2,1.6c2.1,2,4,4.1,3.1,3.6c-1.3-0.8-7.4-7.1-7.3-7.5
		c0.1-0.2,1.1,0.2,2.2,0.8C170.3,141.4,178.4,148.7,176.9,148.4z M205.6,154.1c2.1,2.4,2.2,2.5,1,2.4c-0.9-0.1-1.8-0.7-3.1-2.5
		c-1.9-2.4-2.2-3.2-0.8-2.7C203,151.5,204.3,152.7,205.6,154.1z M166,128.4c-12.3-9.9-21.8-19.8-29.6-30.9c-2-2.9-7.2-12.2-7-12.6
		c0-0.1,1.5,1.7,3.2,3.9c1.7,2.2,5.2,6.2,7.6,8.9c7.2,7.8,7.8,8.4,6.9,7.8c-2.4-1.6-4.8-2.7-5-2.3c-0.2,0.5,4.7,3.5,6.8,4.2
		c1.4,0.5,17.3,15.5,16.4,15.5c-0.7,0-9.4-5.9-12.1-8.1c-2.5-2.1-2.5-2.1-2.7-1.6c-0.1,0.2,0.3,0.8,0.8,1.3
		c1.4,1.4,9.7,7.3,14.2,9.9c2.1,1.3,4.4,2.8,5,3.5c1,1,3.7,3,12.9,10c2.3,1.7,1.5,2.1-1.4,0.6C173.7,134.3,171.8,133.1,166,128.4z
		 M194.7,150.1c-0.8-1.1-4.5-3.8-8.4-6c-3-1.7-8.7-5.9-8.5-6.2c0-0.1,1.5,0.5,3.2,1.3c1.8,0.9,4.1,1.7,5.3,1.9
		c1.9,0.3,2.8,0.8,6.7,3.6c2.5,1.8,4.6,3.4,4.6,3.6c0.1,0.2-0.9-0.1-2.2-0.6c-1.2-0.5-2.4-0.7-2.5-0.4c-0.1,0.3,1.1,1,2.8,1.6
		c2.8,1.1,3.2,1.4,5.5,4.4c3,3.8,2.4,4-0.8,0.3c-2.8-3.2-2.7-3.1-2.9-2.6c-0.1,0.2,1,1.9,2.4,3.6c1.4,1.7,2.6,3.2,2.6,3.3
		C202.6,158,195.5,151.1,194.7,150.1z M213.5,162.5c2.2,2.2,3.7,3.9,3.3,3.9c-0.4,0-2.4-1.8-4.5-4c-2.1-2.2-3.6-3.9-3.3-3.9
		C209.2,158.5,211.3,160.3,213.5,162.5z M195.9,153c0-0.1,0.7,0.4,1.5,1.1c1.6,1.5,1.9,2,1.1,1.7C197.8,155.6,195.8,153.3,195.9,153
		z M204.9,160.1c-0.5-0.4-0.7-0.8-0.5-0.8c0.2-0.1,0.7,0.2,1.2,0.6c0.5,0.4,0.7,0.8,0.5,0.8C205.9,160.7,205.3,160.5,204.9,160.1z
		 M211.7,164.3c-2.2-1.4-4.1-3.3-3.8-4.1c0.2-0.4,0.9,0.1,2.7,1.9C213.6,165.2,213.8,165.6,211.7,164.3z M218.7,168.5
		c-0.3-0.3-0.5-0.6-0.3-0.7c0.2-0.1,0.6,0.2,0.9,0.6C220,169.3,219.7,169.3,218.7,168.5z M223.1,171.7c-0.3-0.3-0.5-0.6-0.3-0.7
		c0.2-0.1,0.6,0.2,0.9,0.6C224.4,172.5,224,172.5,223.1,171.7z M226.6,172.9c-2-2.1-3.7-3.9-3.7-3.9c0-0.1,1,0.4,2.2,1.1
		c1.4,0.8,2.3,1.6,2.5,2.3c0.1,0.6,1.3,2.2,2.5,3.5C233.6,179.5,230.8,177.2,226.6,172.9z M233.2,176.7c0.6,0.7,1,1.3,1,1.5
		c-0.1,0.1-0.5-0.3-1.1-1c-0.6-0.7-1-1.3-1-1.5C232.1,175.5,232.6,176,233.2,176.7z M230.7,173.7c1.5,1.7,1.2,1.9-0.3,0.3
		c-0.7-0.7-1.2-1.4-1-1.4C229.5,172.5,230.1,173,230.7,173.7z M221.4,167.5c-0.8-0.9-1.1-1-1.4-0.7c-0.3,0.3-1.1-0.3-2.7-2
		c-1.8-2-2-2.3-0.9-1.7c2,1.2,1.6,0-0.6-1.6c-2.2-1.7-2.2-2.1,0.1-0.9c2.4,1.3,7.6,6.8,7,7.5C222.5,168.6,222.2,168.5,221.4,167.5z
		 M226.6,168.5c2.2,1.8,2.8,3,0.9,1.6c-1.6-1.1-3.4-3-3-3.1C224.5,166.9,225.5,167.6,226.6,168.5z M236.2,175.7
		c-1.2-1.2-2.1-2.8-1.9-3.3c0-0.1,0.8,0.8,1.7,1.9C238.7,177.5,238.8,178.4,236.2,175.7z M213.3,143.7c-0.4-0.6-1-1.4-1.2-1.6
		c-0.9-1.1-0.2-0.9,0.8,0.2c0.6,0.6,1.1,1.5,1.2,1.8C214,144.5,213.8,144.4,213.3,143.7z M226.6,154c0.7,1.2,0.6,1.2-0.6-0.3
		c-2.1-2.6-3.2-4.3-3-4.7c0.1-0.2,0.8,0.5,1.5,1.6C225.2,151.7,226.2,153.3,226.6,154z M240.4,157.9l0.4,1.8l-0.7-1.7
		c-0.6-1.6-0.7-2.2-0.3-2C240,156.1,240.2,156.9,240.4,157.9z M230.5,138.1c-0.4-0.1-3.3-5.3-3.2-5.6c0-0.1,1,1,2.1,2.4
		c1.1,1.4,2.4,2.6,2.7,2.6c0.6,0,4.1,7.2,3.9,7.9c-0.1,0.2-1.3-1.4-2.7-3.5C232,140,230.7,138.2,230.5,138.1z M233.1,148.4
		c-0.5-0.8-1.8-2.8-2.9-4.3c-2-3-5.2-8.4-5-8.8c0-0.1,0.9,1.2,1.9,2.8c1,1.6,2.1,3,2.5,3c0.4,0,1.5,1.9,2.6,4.4
		C233.2,147.9,233.7,149.2,233.1,148.4z M235.2,149.7c-1-2.2-1.8-4-1.7-4.1c0-0.1,0.9,1.4,2,3.3c1.1,1.9,1.9,3.7,1.7,4.1
		C237.1,153.3,236.2,151.9,235.2,149.7z M233.6,151.7c0-0.1,0.5,0.4,1,1.1c1.2,1.7,2.3,3.8,1.9,4
		C236.3,156.8,233.5,152.1,233.6,151.7z M219,145.1c1.8,2.2,2,2.9,0.4,1.3c-1.5-1.5-2.6-3-2.3-3.1
		C217.4,143.3,218.2,144.1,219,145.1z M223.3,144.9c0.7,0.7,1.1,1.4,1,1.5c-0.3,0.1-2.5-2.3-2.4-2.6
		C222,143.6,222.6,144.1,223.3,144.9z M217.5,139.9c-1.3-2.2-2.2-2-1,0.2l0.9,1.6l-1.5-1.7c-2.9-3.3-3.6-4.3-4.2-5.4
		c-0.3-0.6-0.4-1.2-0.3-1.2c0.1-0.1,2,1.5,4.2,3.6c2.8,2.6,3.8,3.8,3.5,4.2C218.7,141.5,218.3,141.2,217.5,139.9z M218,135.9
		c2.8,3.1,6.8,8.2,7,8.8c0.2,1-8.4-8.5-8.8-9.7c-0.2-0.7-0.4-1.3-0.4-1.4C215.7,133.5,216.7,134.5,218,135.9z M109.6,10.5
		c1.2,1.2,3.6,3.6,5.4,5.4c5.4,5.4,16.6,17.2,16.4,17.3c-0.1,0-3-2-6.5-4.4c-5.4-3.9-7.4-5-6.9-3.9c0.1,0.1,3.9,3,8.6,6.4
		c6.9,5,9.3,7,12.9,10.9c4.5,4.8,7.6,9.1,5.6,7.6c-1.6-1.2-11.9-7.5-12.6-7.8c-0.4-0.1-0.7-0.1-0.8,0.1c-0.1,0.2,3,2.3,6.9,4.8
		c10.4,6.5,13.1,8.8,18.6,15.3c2.7,3.1,4.8,5.8,4.7,5.8c-0.1,0-1.4-0.7-2.8-1.6c-3.7-2.4-14.4-7.2-14.2-6.3c0.1,0.4,1.2,1.1,2.6,1.7
		c8.7,3.4,16.7,8.7,22.2,14.7c3.7,4,15.2,18.5,13.7,17.3c-0.4-0.4-2-1.7-3.5-2.9c-6.3-5.3-20.4-15-21.3-14.6
		c-0.6,0.2-0.1,0.7,3.4,2.9c8.3,5.2,17.8,12.6,24.7,19.2c3,2.9,14.3,16.5,14.1,17c0,0.1-0.8-0.5-1.7-1.2
		c-10.5-8.5-23.5-18.6-23.8-18.4c-0.6,0.2,0.3,1.2,2.8,3.1c5.7,4.2,23.8,18.8,25.6,20.7c3.8,3.9,9.3,10.9,10.2,13.1
		c1,2.5,0.8,2.5-2.3-0.1c-1.6-1.3-2.9-3.1-4.4-5.8c-2.2-4.2-3.5-4.7-1.5-0.5c0.9,1.8,1,2.4,0.4,2.2c-0.4-0.2-1.5-1.8-2.4-3.5
		c-1.7-3.6-2.9-4.1-1.4-0.7l0.9,2.2l-1.2-0.8c-0.7-0.4-1.8-1.2-2.6-1.8c-0.8-0.5-1.5-0.9-1.7-0.8c-0.6,0.3,0.4,1.2,3.5,3.3
		c2.5,1.7,3.4,2.6,4.3,4.3c0.7,1.4,1.2,2,1.4,1.6c0.1-0.4,0.1-0.9-0.1-1.4c-0.3-0.6-0.2-0.7,0.4-0.5c0.4,0.2,1.5,1.6,2.4,3.2
		c0.9,1.7,1.8,3,1.9,3c0.4,0.2,3.9,6.3,3.7,6.4c-0.4,0.2-2.2-2.2-3.9-5.1c-0.9-1.6-1.9-2.9-2.2-2.9c-0.3,0.1-0.1,0.8,0.3,1.6
		c0.9,1.5,0.9,1.5-0.1,0.8c-0.6-0.4-1.8-1.9-2.8-3.5c-1-1.5-2-2.7-2.3-2.6c-0.2,0.1-0.4,0.3-0.3,0.4c0.1,0.1,1.2,1.8,2.4,3.8
		c1.3,2,2.3,3.7,2.2,3.8c-0.1,0.3-0.5-0.2-5.4-7.4c-2.5-3.6-4.7-6.6-5-6.7c-0.9-0.3,0,1.1,3.7,6.5c1.9,2.7,3.3,4.9,3.1,4.8
		c-0.8-0.3-2.7-2.6-5.9-7.3c-1.9-2.8-3.6-4.8-3.7-4.5c-0.1,0.3,0.4,1.5,1.3,2.6c2.9,4,1.6,2.9-3.6-2.8c-4.3-4.7-5.1-5.7-4.9-6.5
		c-1.1-2.3-2.5-4.4-4.1-6.3c-0.5-0.5-1.1-1-1.7-1.5c-5.1-4.6-6.2-5.8-14.3-15.3c-3.4-4-6.1-7.5-5.9-7.8c-1.4-1.7-2.6-3.5-3.6-5.5
		c-1.9-2.1-4.3-4.8-6.9-7.6c-7.3-7.9-9.6-10.4-10.1-11.7c-0.1-0.1-0.1-0.1-0.2-0.2c-0.4-0.8-0.9-1.5-1.2-2.3c-0.2,0-0.5-0.1-0.7-0.4
		c-2.6-3.5-5.3-7.3-6.5-11.5c0-0.2,0-0.3,0-0.5c-1.1-1.4-2.1-2.9-3.1-4.1c-7.1-9.3-16.5-23.1-19.9-29.3c-1.6-2.8-2.8-5.2-2.8-5.3
		C107.5,8.4,108.5,9.3,109.6,10.5z"/>
	<path class="st1" d="M191.1,157.7c0.3,0.2,0,0.2-0.6,0c-0.6-0.2-0.8-0.4-0.5-0.4C190.4,157.3,190.9,157.5,191.1,157.7z"/>
	<path class="st1" d="M202.3,163.1c0.3,0.3,0.2,0.3-0.4,0.2c-0.5-0.2-0.7-0.4-0.5-0.4C201.6,162.7,202,162.8,202.3,163.1z"/>
	<path class="st1" d="M209.8,156.6c-0.1,0.2-0.4,0.2-0.7-0.1c-0.3-0.3-0.5-0.6-0.5-0.7c0-0.1,0.4-0.1,0.7,0.1
		C209.7,156.1,209.9,156.4,209.8,156.6z"/>
	<path class="st1" d="M220.1,142c-0.5-0.7-0.3-0.9,0.4-0.3c0.3,0.3,0.4,0.6,0.3,0.7C220.6,142.4,220.3,142.3,220.1,142z"/>
	<path class="st1" d="M148.3,51.5c0.3,0.3,0.4,0.6,0.3,0.6c-0.2,0.1-0.5-0.1-0.7-0.4C147.3,51.1,147.6,50.9,148.3,51.5z"/>
	<path class="st1" d="M125,117.6c3.4,3.1,3.4,3,3.6,2.5c0.1-0.2-1.2-1.6-2.9-3.1c-3.3-3-3.4-3.1-3.6-2.5
		C122,114.7,123.3,116.1,125,117.6L125,117.6z"/>
	<path class="st1" d="M134.2,123.2c1.5,1.5,3,2.8,3.2,2.9c0.9,0.4,0.7-0.5-0.3-1.4c-0.6-0.5-1.9-1.8-3-2.8c-1.1-1-2.1-1.7-2.3-1.6
		C131.6,120.4,132.7,121.7,134.2,123.2L134.2,123.2z"/>
	<path class="st1" d="M141,124.3c1.6,1.8,2.3,2.3,2.6,1.7c0.2-0.6-2.6-3.3-3.4-3.3C139.8,122.7,140.2,123.4,141,124.3L141,124.3z"/>
	<path class="st1" d="M160.6,163.2c6.5,2.3,8.8,2.7,6.7,1.1c-1.4-1-12-4-12.8-3.7C154.2,160.8,156.5,161.8,160.6,163.2L160.6,163.2z
		"/>
	<path class="st1" d="M172.8,162.8c3.7,1.6,6.8,2.8,6.9,2.8c0.8-0.3-0.8-1.2-6.2-3.5c-3.8-1.6-6.4-2.5-6.8-2.4
		C166.3,159.9,168.4,160.9,172.8,162.8L172.8,162.8z"/>
	<path class="st1" d="M175.6,162c6.1,2.7,7.5,3.1,7.1,2.3c-0.3-0.6-13.4-6.1-13.5-5.6C169.1,158.9,171.7,160.3,175.6,162L175.6,162z
		"/>
	<path class="st1" d="M176.5,160.3c0.3,0.3,2,1.1,3.8,1.8c4.1,1.6,3.7,0.5-0.5-1.3C176.7,159.4,175.3,159.2,176.5,160.3L176.5,160.3
		z"/>
	<path class="st1" d="M182.4,161.5c1.4,0.7,3,1.6,3.6,2c1.1,0.8,1.7,0.1,0.7-0.8c-1.2-1.1-6.5-3.5-6.7-3
		C179.9,160,181,160.8,182.4,161.5L182.4,161.5z"/>
	<path class="st1" d="M192,167.8c4.3,2,5.4,2.3,5.1,1.5c-0.3-0.7-9.4-4.5-9.6-4.1C187.5,165.5,189.4,166.6,192,167.8L192,167.8z"/>
	<path class="st1" d="M188.6,168.6c0.3,0.3,1.8,1,3.3,1.6c3.5,1.4,3.1,0.3-0.5-1.3C188.8,167.6,187.5,167.5,188.6,168.6L188.6,168.6
		z"/>
	<path class="st1" d="M199.7,171.9c0.9,0.5,2.7,1.7,4.2,2.6c1.5,1,2.8,1.7,2.9,1.6c0.7-0.3-0.4-1.3-3-2.9c-1.7-1-3.5-2.1-4.2-2.5
		c-0.6-0.4-1.2-0.5-1.3-0.3C198.2,170.8,198.8,171.4,199.7,171.9L199.7,171.9z"/>
	<path class="st1" d="M208.6,177.8c0.4,0.3,1.7,1.1,2.9,1.7c2.7,1.5,3.4,0.8,0.8-0.7c-1-0.6-2.3-1.3-2.9-1.7
		C208.1,176.3,207.4,177,208.6,177.8L208.6,177.8z"/>
	<path class="st1" d="M220.3,186.2c0.3,0.1,0.5,0,0.6-0.3c0.1-0.3,0-0.5-0.3-0.6c-0.3-0.1-0.5,0-0.6,0.3
		C219.9,185.9,220,186.1,220.3,186.2L220.3,186.2z"/>
	<path class="st1" d="M212,111.3c0.9,1.8,1.5,1,0.7-0.9c-0.5-1.2-0.8-1.5-1-0.9C211.6,109.9,211.7,110.7,212,111.3L212,111.3z"/>
	<path class="st1" d="M212.9,123.8c1.4,2.8,2.1,3.7,2.4,2.9c0.1-0.3-2.2-5-3.1-6.1C211.1,119.3,211.5,121.2,212.9,123.8L212.9,123.8
		z"/>
	<path class="st1" d="M217.7,121.8c0.9,1.8,1.8,3.2,2.1,3.1c0.5-0.3-2.3-6.6-3.1-6.9C215.8,117.6,216,118.5,217.7,121.8L217.7,121.8
		z"/>
	<path class="st1" d="M76.2,156.4c0.3,0.1,0.5,0,0.6-0.3c0.1-0.3-0.1-0.4-0.4-0.4c-0.3,0.1-0.6,0.2-0.6,0.3
		C75.8,156.2,75.9,156.3,76.2,156.4L76.2,156.4z"/>
	<path class="st1" d="M150.9,148.3c7.7,2.6,11.1,3.1,4.9,0.7c-5.4-2.1-11.9-4-12.1-3.6C143.6,145.7,146.6,146.9,150.9,148.3
		L150.9,148.3z"/>
	<path class="st2" d="M1,204.1c0,0,33.9-48.2,102.9-63.7c0.4-0.1,0.8-0.2,1.3-0.3"/>
	<path class="st2" d="M67.2,106.6c0,0,19.2,28.6,45.4,35.1"/>
	<path class="st2" d="M79.3,94.1c0,0,29.3,5.1,73.3,32.3"/>
	<path class="st2" d="M129.5,82.8c0,0,39.8,29.5,46.7,37.7"/>
	<path class="st2" d="M123,14.8c0,0,40.6,23.4,79.7,74"/>
</g>
</svg>
